#!OML:ASF H:\Terrain\Patient Classification 1\Terrain2\Thursday\justin.ASF
:FULLY-SPECIFIED
:DEGREES
4539
root 2.78035 16.1044 10.8591 360.154 -64.6011 -13.2398
lowerback 13.6458 1.96548 -3.05823
upperback 5.75215 2.09021 2.26445
thorax -1.78284 0.898711 3.78398
lowerneck -9.03443 -6.1001 -13.9308
upperneck 35.1108 -11.1267 11.4987
head 15.2596 -5.65064 5.43875
rclavicle 4.30866e-014 -1.19271e-014
rhumerus -40.4385 -10.2716 -73.5247
rradius 32.8379
rwrist -6.25002
rhand -17.3613 14.8172
rfingers 7.12502
rthumb 8.88671 -14.9757
lclavicle 4.30866e-014 -1.19271e-014
lhumerus -39.1551 7.14492 77.3746
lradius 31.3667
lwrist 5.59688
lhand -21.6207 21.9369
lfingers 7.12502
lthumb 4.77501 51.8631
rfemur -59.2864 -21.3051 16.2836
rtibia 41.4038
rfoot 25.011 -16.1883
rtoes 32.539
lfemur 26.7246 -6.19038 -5.61826
ltibia 32.6387
lfoot -14.4583 -13.1772
ltoes -19.0084
4540
root 2.58786 16.1015 10.8686 360.787 -64.304 -13.3184
lowerback 13.4102 1.83172 -2.49904
upperback 5.43988 2.00323 2.21662
thorax -1.95833 0.876748 3.4301
lowerneck -9.14128 -6.23733 -13.7883
upperneck 35.011 -11.2618 11.3124
head 15.2358 -5.69955 5.29831
rclavicle 4.30866e-014 -2.22639e-014
rhumerus -40.9802 -9.21141 -74.0897
rradius 34.1016
rwrist -8.87152
rhand -20.1255 13.56
rfingers 7.12502
rthumb 6.21862 -16.3287
lclavicle 4.30866e-014 -2.22639e-014
lhumerus -39.3412 7.40082 77.1772
lradius 31.2246
lwrist 4.7978
lhand -22.0107 22.014
lfingers 7.12502
lthumb 4.39842 51.9484
rfemur -59.6679 -21.8889 16.9604
rtibia 42.1128
rfoot 26.4598 -15.5546
rtoes 32.2342
lfemur 27.6033 -6.55909 -5.3839
ltibia 30.7494
lfoot -13.7541 -13.1391
ltoes -18.7491
4541
root 2.38612 16.0888 10.8716 361.256 -64.0128 -13.0653
lowerback 13.0157 1.61443 -2.29226
upperback 5.09036 1.76788 2.23561
thorax -2.08854 0.775701 3.37126
lowerneck -9.22191 -6.26663 -13.7063
upperneck 34.9354 -11.1844 11.0125
head 15.1727 -5.68108 5.15862
rclavicle 9.58142e-014 -2.38542e-014
rhumerus -41.3365 -8.69928 -74.0083
rradius 34.6461
rwrist -8.88714
rhand -21.5765 13.217
rfingers 7.12502
rthumb 4.81769 -16.7083
lclavicle 9.58142e-014 -2.38542e-014
lhumerus -39.6915 7.73162 77.0973
lradius 31.1347
lwrist 4.41121
lhand -22.7477 22.1375
lfingers 7.12502
lthumb 3.68679 52.0853
rfemur -60.0924 -22.4129 17.6284
rtibia 42.5926
rfoot 28.0938 -14.7617
rtoes 31.7615
lfemur 28.3771 -6.8214 -5.1928
ltibia 28.7782
lfoot -12.688 -13.0398
ltoes -17.2911
4542
root 2.17982 16.094 10.8618 361.529 -63.8607 -12.3555
lowerback 12.537 1.47138 -2.48365
upperback 4.63459 1.5871 2.21321
thorax -2.29659 0.703382 3.48584
lowerneck -9.25375 -6.24104 -13.6434
upperneck 34.8901 -11.1057 10.8942
head 15.1288 -5.65005 5.10614
rclavicle -2.60159e-014 -1.63003e-014
rhumerus -41.7755 -8.16105 -74.0005
rradius 35.1553
rwrist -9.11949
rhand -21.3096 13.3295
rfingers 7.12502
rthumb 5.07544 -16.5897
lclavicle -2.60159e-014 -1.63003e-014
lhumerus -40.226 7.93888 77.0855
lradius 31.2495
lwrist 4.45049
lhand -22.7248 22.5665
lfingers 7.12502
lthumb 3.70889 52.5139
rfemur -60.6706 -22.6132 18.0515
rtibia 42.8467
rfoot 29.9325 -13.7653
rtoes 30.5671
lfemur 28.9562 -6.92737 -5.16662
ltibia 26.7155
lfoot -11.144 -12.8824
ltoes -14.1043
4543
root 1.96495 16.1314 10.8483 362.364 -63.6058 -12.1997
lowerback 12.0489 1.41104 -2.34764
upperback 4.10523 1.55738 2.24066
thorax -2.57966 0.710551 3.4437
lowerneck -9.33659 -6.34535 -13.7256
upperneck 35.1136 -11.2743 10.8837
head 15.2954 -5.73706 5.09336
rclavicle -7.35503e-015 8.34896e-015
rhumerus -42.4769 -8.01393 -73.792
rradius 35.6287
rwrist -9.51217
rhand -20.4485 14.1272
rfingers 7.12502
rthumb 5.90678 -15.7704
lclavicle -7.35503e-015 8.34896e-015
lhumerus -40.666 7.85917 77.1269
lradius 31.2609
lwrist 4.52428
lhand -23.087 23.2246
lfingers 7.12502
lthumb 3.35911 53.1778
rfemur -60.9487 -22.5015 18.1855
rtibia 42.9419
rfoot 31.0832 -14.7232
rtoes 32.7273
lfemur 29.4642 -7.24306 -4.93306
ltibia 24.573
lfoot -8.83808 -12.6913
ltoes -9.64668
4544
root 1.74105 16.1742 10.8415 363.215 -63.1018 -12.456
lowerback 11.8891 1.21745 -1.9769
upperback 3.67818 1.36712 2.3563
thorax -2.91838 0.632373 3.38086
lowerneck -9.49306 -6.40309 -13.7021
upperneck 35.3058 -11.3277 10.7402
head 15.4241 -5.77114 5.01993
rclavicle 1.54058e-015 8.34896e-015
rhumerus -43.0543 -7.6296 -73.6542
rradius 36.0541
rwrist -9.79121
rhand -20.1194 14.0592
rfingers 7.12502
rthumb 6.22451 -15.8293
lclavicle 1.54058e-015 8.34896e-015
lhumerus -41.1658 7.91775 77.1451
lradius 31.3277
lwrist 4.70149
lhand -23.5173 23.6807
lfingers 7.12502
lthumb 2.94356 53.6401
rfemur -60.5273 -22.5014 18.1645
rtibia 42.8857
rfoot 31.766 -15.9881
rtoes 35.1772
lfemur 30.2908 -7.8264 -4.51895
ltibia 22.3704
lfoot -6.60661 -12.3952
ltoes -10.8976
4545
root 1.51049 16.2331 10.8364 363.657 -62.5491 -12.1157
lowerback 11.5683 0.939402 -1.93764
upperback 3.25931 1.02539 2.37914
thorax -3.15431 0.477266 3.43242
lowerneck -9.57582 -6.30015 -13.288
upperneck 35.2098 -11.1573 10.5143
head 15.3115 -5.66315 4.87113
rclavicle 1.3418e-014 -1.13307e-014
rhumerus -43.5068 -6.91114 -73.865
rradius 36.5391
rwrist -10.071
rhand -19.027 13.8858
rfingers 7.12502
rthumb 7.27911 -15.969
lclavicle 1.3418e-014 -1.13307e-014
lhumerus -41.7968 8.24304 76.9474
lradius 31.4614
lwrist 4.32702
lhand -23.4689 23.6307
lfingers 7.12502
lthumb 2.99026 53.5894
rfemur -60.0645 -22.5751 18.007
rtibia 42.5929
rfoot 32.4922 -16.0786
rtoes 35.849
lfemur 30.9366 -8.30737 -4.32405
ltibia 20.102
lfoot -4.79384 -12.1785
ltoes -18.5259
4546
root 1.26967 16.3076 10.8312 363.933 -62.0092 -11.1596
lowerback 10.8304 0.694023 -2.13826
upperback 2.70972 0.706787 2.29753
thorax -3.29929 0.337963 3.50692
lowerneck -9.51359 -6.2314 -12.9978
upperneck 35.1517 -11.0733 10.3734
head 15.2177 -5.60733 4.77175
rclavicle -4.37823e-014 1.98785e-016
rhumerus -44.1206 -6.14524 -74.1771
rradius 36.976
rwrist -10.8022
rhand -20.5049 11.0527
rfingers 7.12502
rthumb 5.85236 -18.8464
lclavicle -4.37823e-014 1.98785e-016
lhumerus -42.4534 8.23343 76.8339
lradius 31.5425
lwrist 4.0999
lhand -23.9098 23.2639
lfingers 7.12502
lthumb 2.56442 53.2282
rfemur -59.9455 -22.7965 17.9713
rtibia 42.0201
rfoot 33.6341 -14.7087
rtoes 33.9966
lfemur 31.1734 -8.80543 -4.42385
ltibia 17.8032
lfoot -2.07952 -12.0295
ltoes -22.1027
4547
root 1.01825 16.3688 10.8265 364.259 -61.4028 -10.3611
lowerback 10.189 0.415953 -2.24002
upperback 2.15108 0.355764 2.32713
thorax -3.50059 0.182231 3.64292
lowerneck -9.53155 -6.25304 -13.1984
upperneck 35.3434 -11.0627 10.2885
head 15.3241 -5.6444 4.77852
rclavicle -1.08164e-013 -1.13307e-014
rhumerus -44.7069 -5.58985 -74.1134
rradius 37.1731
rwrist -11.0354
rhand -20.6351 14.408
rfingers 7.12502
rthumb 5.72661 -15.4946
lclavicle -1.08164e-013 -1.13307e-014
lhumerus -43.1773 8.17175 76.9353
lradius 31.647
lwrist 4.43362
lhand -24.37 23.08
lfingers 7.12502
lthumb 2.12002 53.0493
rfemur -59.8247 -23.3395 18.386
rtibia 41.2548
rfoot 35.0933 -11.7792
rtoes 29.2525
lfemur 31.4884 -9.31649 -4.32541
ltibia 15.4334
lfoot 1.41398 -11.8727
ltoes -22.572
4548
root 0.758452 16.4354 10.8221 364.821 -60.678 -10.0892
lowerback 9.70416 0.138974 -2.06518
upperback 1.71543 0.0295952 2.46349
thorax -3.65942 0.0315375 3.72797
lowerneck -9.63679 -6.30842 -13.5315
upperneck 35.5558 -11.1001 10.312
head 15.4909 -5.70338 4.84692
rclavicle 1.89653e-014 -1.07344e-014
rhumerus -45.1048 -5.73779 -73.5612
rradius 37.0238
rwrist -9.85431
rhand -21.3339 13.0729
rfingers 7.12502
rthumb 5.05194 -16.8468
lclavicle 1.89653e-014 -1.07344e-014
lhumerus -43.7617 8.14015 77.0925
lradius 31.7165
lwrist 4.55203
lhand -24.5051 23.31
lfingers 7.12502
lthumb 1.98956 53.2805
rfemur -59.2739 -23.8957 18.8091
rtibia 40.462
rfoot 35.6703 -10.3759
rtoes 27.6266
lfemur 32.0609 -9.69948 -3.79559
ltibia 12.7652
lfoot 4.95302 -12.0514
ltoes -24.2963
4549
root 0.489301 16.5105 10.8158 364.434 -60.0193 -8.86326
lowerback 9.21758 0.000987005 -2.33
upperback 1.39319 -0.16763 2.36356
thorax -3.70793 -0.0544738 3.79576
lowerneck -9.63188 -6.43764 -13.5406
upperneck 35.5334 -11.2953 10.3151
head 15.5156 -5.78501 4.81327
rclavicle -5.80948e-014 -1.63997e-014
rhumerus -45.5471 -6.01278 -73.2651
rradius 36.9727
rwrist -9.05628
rhand -16.7788 19.4416
rfingers 7.12502
rthumb 9.44879 -10.3266
lclavicle -5.80948e-014 -1.63997e-014
lhumerus -44.1315 7.51618 77.3453
lradius 31.7701
lwrist 4.77607
lhand -24.8003 23.4658
lfingers 7.12502
lthumb 1.7044 53.4387
rfemur -58.4595 -24.3738 18.502
rtibia 39.7326
rfoot 35.8584 -10.3414
rtoes 28.8774
lfemur 33.1036 -10.0153 -3.81451
ltibia 9.25592
lfoot 9.29016 -12.3748
ltoes -25.1851
